<svg xmlns="http://www.w3.org/2000/svg" viewBox="0 0 64 48">
  <rect width="64" height="48" fill="#de2910"/>
  <path fill="#ffde00" d="M13 7l1.8 5.1h5.4l-4.4 3.1 1.7 5.1-4.5-3.2-4.4 3.2 1.7-5.1-4.4-3.1h5.4z"/>
  <path fill="#ffde00" d="M24 8.3l.8 2.3h2.4l-2 1.4.8 2.3-2-1.5-2 1.5.8-2.3-2-1.4h2.4z"/>
  <path fill="#ffde00" d="M28 13.3l.8 2.3h2.4l-2 1.4.8 2.3-2-1.5-2 1.5.8-2.3-2-1.4h2.4z"/>
  <path fill="#ffde00" d="M28 20l.8 2.3h2.4l-2 1.4.8 2.3-2-1.5-2 1.5.8-2.3-2-1.4h2.4z"/>
  <path fill="#ffde00" d="M23.2 24.8l.8 2.3h2.4l-2 1.4.8 2.3-2-1.5-2 1.5.8-2.3-2-1.4h2.4z"/>
</svg>
